<?xml version="1.0" standalone="no"?><!DOCTYPE svg PUBLIC "-//W3C//DTD SVG 1.1//EN" "http://www.w3.org/Graphics/SVG/1.1/DTD/svg11.dtd"><svg t="1781358314304" class="icon" viewBox="0 0 1024 1024" version="1.1" xmlns="http://www.w3.org/2000/svg" p-id="12739" xmlns:xlink="http://www.w3.org/1999/xlink" width="48" height="48"><path d="M82.610791 1023.123917c-19.798496 0-39.596992-11.417133-39.596992-30.984647A37.204674 37.204674 0 0 1 82.610791 958.943791h171.454977V449.85846H43.013799A28.278852 28.278852 0 0 1 16.615804 423.724445v-149.82512A23.642704 23.642704 0 0 1 23.215303 254.282315L254.065768 6.801113A24.187163 24.187163 0 0 1 273.996254 0.201615h13.067007l553.945424 247.62969 151.623484 149.82512a28.872807 28.872807 0 0 1 0 32.552028 24.269657 24.269657 0 0 1-19.683005 6.484007h-19.798497v269.474032a82.642223 82.642223 0 0 1 39.926968 31.925075 81.800787 81.800787 0 0 1-24.484141 114.00634 83.978621 83.978621 0 0 1-115.227247-24.319153 80.711869 80.711869 0 0 1-13.314489-50.634654h0.26398v-0.577456a17.818647 17.818647 0 0 1 35.571298-1.319899h0.329975c0 0.65995-0.148489 1.237406-0.230982 1.897355l-0.26398 2.392319a46.064501 46.064501 0 0 0 7.473932 29.004797 48.027852 48.027852 0 0 0 65.895995 13.891944 46.790446 46.790446 0 0 0 13.990937-65.087556 47.499892 47.499892 0 0 0-33.376965-20.953408v-0.181486a20.194466 20.194466 0 0 1-3.085265 0.230982 28.295351 28.295351 0 0 1-26.397995-26.051521v-260.6802H564.044223v71.75305c0 19.567514-19.798496 25.078095-39.596992 25.078095h-60.83088v412.46867h159.724368a32.78301 32.78301 0 1 1 0 64.180126z m666.004912-625.450993h54.445865v-97.656082h-54.445865z m-109.53518-4.685644h65.994988v-88.268296h-65.994988z m-115.491227 0h65.994987v-88.268296h-65.994987z m-108.231779 0h65.895994v-88.268296h-65.895994z m-114.781782 0h65.994987v-88.268296h-65.994987z m-119.054957 0h65.895995v-88.433283H181.520778z m263.798463-138.589473h277.030457L339.826254 78.356178z m-144.990987 0V254.282315h85.694491L300.394249 117.573699z m-204.58446 0h158.387969V84.939178z" p-id="12740"></path></svg>