<?xml version="1.0" standalone="no"?><!DOCTYPE svg PUBLIC "-//W3C//DTD SVG 1.1//EN" "http://www.w3.org/Graphics/SVG/1.1/DTD/svg11.dtd"><svg t="1781110588620" class="icon" viewBox="0 0 1024 1024" version="1.1" xmlns="http://www.w3.org/2000/svg" p-id="40032" xmlns:xlink="http://www.w3.org/1999/xlink" width="48" height="48"><path d="M512.5 48C765.725 48 971 253.355 971 506.667c0 167.911-90.196 314.751-224.765 394.676l192.765-0.01c17.673 0 32 14.327 32 32 0 17.497-14.042 31.713-31.47 31.996l-0.53 0.004H512.5l-0.53-0.004-0.02 0.004C258.976 965.035 54 759.795 54 506.667 54 253.355 259.275 48 512.5 48z m0 554.667c-53.01 0-95.975 42.982-95.975 96 0 53.017 42.966 96 95.975 96 53.01 0 95.975-42.983 95.975-96 0-53.018-42.966-96-95.975-96z m-191.925-192c-53.01 0-95.975 42.982-95.975 96 0 53.017 42.966 96 95.975 96 53.01 0 95.975-42.983 95.975-96 0-53.018-42.966-96-95.975-96z m383.85 0c-53.01 0-95.975 42.982-95.975 96 0 53.017 42.966 96 95.975 96 53.01 0 95.975-42.983 95.975-96 0-53.018-42.966-96-95.975-96z m-191.925-192c-53.01 0-95.975 42.982-95.975 96 0 53.017 42.966 96 95.975 96 53.01 0 95.975-42.983 95.975-96 0-53.018-42.966-96-95.975-96z" p-id="40033" fill="#898989"></path></svg>