<?xml version="1.0" standalone="no"?><!DOCTYPE svg PUBLIC "-//W3C//DTD SVG 1.1//EN" "http://www.w3.org/Graphics/SVG/1.1/DTD/svg11.dtd"><svg t="1781109168513" class="icon" viewBox="0 0 1024 1024" version="1.1" xmlns="http://www.w3.org/2000/svg" p-id="8602" width="48" height="48" xmlns:xlink="http://www.w3.org/1999/xlink"><path d="M745.984 512q25.984 0 45.013333-18.005333t18.986667-45.994667-18.986667-45.994667-45.013333-18.005333-45.013333 18.005333-18.986667 45.994667 18.986667 45.994667 45.013333 18.005333zM617.984 342.016q25.984 0 45.013333-18.986667t18.986667-45.013333-18.986667-45.013333-45.013333-18.986667-45.013333 18.986667-18.986667 45.013333 18.986667 45.013333 45.013333 18.986667zM406.016 342.016q25.984 0 45.013333-18.986667t18.986667-45.013333-18.986667-45.013333-45.013333-18.986667-45.013333 18.986667-18.986667 45.013333 18.986667 45.013333 45.013333 18.986667zM278.016 512q25.984 0 45.013333-18.005333t18.986667-45.994667-18.986667-45.994667-45.013333-18.005333-45.013333 18.005333-18.986667 45.994667 18.986667 45.994667 45.013333 18.005333zM512 128q157.994667 0 271.018667 100.010667t112.981333 242.005333q0 88.021333-63.018667 150.016t-150.997333 61.994667l-73.984 0q-27.989333 0-45.994667 18.986667t-18.005333 45.013333q0 22.016 16 41.984t16 43.989333q0 27.989333-18.005333 45.994667t-45.994667 18.005333q-160 0-272-112t-112-272 112-272 272-112z" fill="#898989" p-id="8603"></path></svg>