<?xml version="1.0" standalone="no"?><!DOCTYPE svg PUBLIC "-//W3C//DTD SVG 1.1//EN" "http://www.w3.org/Graphics/SVG/1.1/DTD/svg11.dtd"><svg t="1781110462100" class="icon" viewBox="0 0 1024 1024" version="1.1" xmlns="http://www.w3.org/2000/svg" p-id="35850" xmlns:xlink="http://www.w3.org/1999/xlink" width="48" height="48"><path d="M432 170.666667h181.333333v309.333333h-266.666666V256a85.333333 85.333333 0 0 1 85.333333-85.333333zM165.333333 544h181.333334V853.333333h-181.333334a85.333333 85.333333 0 0 1-85.333333-85.333333v-138.666667a85.333333 85.333333 0 0 1 85.333333-85.333333z m512-373.333333h181.333334a85.333333 85.333333 0 0 1 85.333333 85.333333v138.666667a85.333333 85.333333 0 0 1-85.333333 85.333333h-181.333334V170.666667z m-266.666666 373.333333h266.666666V768a85.333333 85.333333 0 0 1-85.333333 85.333333h-181.333333V544z" fill="#898989" p-id="35851"></path></svg>