<?xml version="1.0" standalone="no"?><!DOCTYPE svg PUBLIC "-//W3C//DTD SVG 1.1//EN" "http://www.w3.org/Graphics/SVG/1.1/DTD/svg11.dtd"><svg t="1781357725218" class="icon" viewBox="0 0 1024 1024" version="1.1" xmlns="http://www.w3.org/2000/svg" p-id="5756" xmlns:xlink="http://www.w3.org/1999/xlink" width="48" height="48"><path d="M510.67871 0C245.099355 0 26.425806 203.47871 1.32129 462.451613h587.974194L475.664516 348.820645c-19.15871-19.15871-19.15871-50.869677 0-70.028387s50.869677-19.15871 70.028387 0l198.193549 198.193548c4.624516 4.624516 7.927742 9.909677 10.570322 15.855484 5.285161 11.891613 5.285161 25.765161 0 37.656775-2.642581 5.945806-5.945806 11.230968-10.570322 15.855483l-198.193549 198.193549c-9.909677 9.909677-22.461935 14.534194-35.014193 14.534193s-25.104516-4.624516-35.014194-14.534193a49.812645 49.812645 0 0 1 0-70.028387L589.295484 560.887742H1.32129c25.104516 258.972903 243.778065 462.451613 509.35742 462.451613 282.095484 0 512-229.904516 512-512S793.434839 0 510.67871 0z" p-id="5757" fill="#64748b"></path></svg>
