<?xml version="1.0" standalone="no"?><!DOCTYPE svg PUBLIC "-//W3C//DTD SVG 1.1//EN" "http://www.w3.org/Graphics/SVG/1.1/DTD/svg11.dtd"><svg t="1781447774001" class="icon" viewBox="0 0 1024 1024" version="1.1" xmlns="http://www.w3.org/2000/svg" p-id="8373" xmlns:xlink="http://www.w3.org/1999/xlink" width="48" height="48"><path d="M981.269333 302.656a1307.434667 1307.434667 0 0 0-0.426666-28.330667c-0.554667-20.565333-1.749333-41.301333-5.418667-61.653333a207.872 207.872 0 0 0-19.306667-58.624 197.034667 197.034667 0 0 0-86.186666-86.186667 208.064 208.064 0 0 0-58.581334-19.285333c-20.352-3.669333-41.109333-4.885333-61.674666-5.44a1353.365333 1353.365333 0 0 0-28.330667-0.426667C710.122667 42.666667 698.922667 42.666667 687.701333 42.666667H336.298667c-11.221333 0-22.421333 0-33.621334 0.064-9.450667 0.042667-18.901333 0.149333-28.330666 0.426666-5.162667 0.128-10.304 0.298667-15.466667 0.554667-15.466667 0.746667-30.954667 2.112-46.208 4.864-15.488 2.773333-30.165333 6.890667-44.437333 12.8a197.653333 197.653333 0 0 0-64.085334 42.773333 196.906667 196.906667 0 0 0-36.266666 49.92 208 208 0 0 0-19.306667 58.602667c-3.648 20.352-4.864 41.088-5.418667 61.653333a1355.946667 1355.946667 0 0 0-0.426666 28.330667C42.666667 313.856 42.666667 325.056 42.666667 336.277333v351.424c0 11.221333 0 22.4 0.064 33.642667 0.064 9.429333 0.170667 18.858667 0.426666 28.309333 0.554667 20.565333 1.770667 41.322667 5.418667 61.653334 3.712 20.650667 9.770667 39.872 19.328 58.624a196.885333 196.885333 0 0 0 86.186667 86.186666 208 208 0 0 0 58.581333 19.285334c20.330667 3.669333 41.109333 4.885333 61.653333 5.44 9.450667 0.256 18.901333 0.362667 28.352 0.426666 11.2 0.064 22.4 0.042667 33.621334 0.042667h351.402666c11.221333 0 22.421333 0.021333 33.642667-0.064 9.429333-0.042667 18.88-0.170667 28.330667-0.426667 20.565333-0.533333 41.322667-1.749333 61.653333-5.418666a208.085333 208.085333 0 0 0 58.602667-19.285334 196.928 196.928 0 0 0 86.186666-86.186666c9.536-18.773333 15.594667-37.973333 19.306667-58.624 3.648-20.330667 4.864-41.088 5.418667-61.653334 0.256-9.450667 0.362667-18.88 0.426666-28.309333 0.064-11.221333 0.064-22.421333 0.064-33.642667V336.277333c0-11.2 0-22.4-0.064-33.621333z" fill="#F05138" p-id="8374"></path><path d="M786.453333 622.08a2.197333 2.197333 0 0 0-0.064-0.085333c1.024-3.52 2.112-7.04 3.008-10.666667C828.373333 456.106667 733.290667 272.597333 572.373333 176c70.506667 95.573333 101.696 211.370667 73.984 312.618667-2.453333 9.024-5.44 17.706667-8.704 26.112-3.584-2.346667-8.064-4.992-14.08-8.32 0 0-160.064-98.816-333.546666-273.621334-4.544-4.586667 92.501333 138.730667 202.666666 255.104-51.904-29.141333-196.522667-134.357333-288.085333-218.154666 11.264 18.773333 24.64 36.821333 39.338667 54.208 76.458667 96.981333 176.170667 216.597333 295.616 308.48-83.925333 51.349333-202.517333 55.338667-320.597334 0.042666a484.309333 484.309333 0 0 1-82.069333-48.96 491.605333 491.605333 0 0 0 220.650667 189.184c111.722667 48.021333 222.826667 44.778667 305.6 0.789334l-0.064 0.106666 1.237333-0.746666c3.413333-1.834667 6.784-3.690667 10.069333-5.653334 39.765333-20.629333 118.293333-41.578667 160.448 40.448 10.325333 20.053333 32.256-86.293333-48.384-185.536z" fill="#FFFFFF" p-id="8375"></path></svg>