<?xml version="1.0" standalone="no"?><!DOCTYPE svg PUBLIC "-//W3C//DTD SVG 1.1//EN" "http://www.w3.org/Graphics/SVG/1.1/DTD/svg11.dtd"><svg t="1781110330736" class="icon" viewBox="0 0 1024 1024" version="1.1" xmlns="http://www.w3.org/2000/svg" p-id="21870" xmlns:xlink="http://www.w3.org/1999/xlink" width="48" height="48"><path d="M424.704 404.906667l87.637333 105.813333 258.133334-303.189333c13.653333-18.176 20.053333-27.733333 13.653333-43.178667a47.018667 47.018667 0 0 0-41.045333-29.013333 36.778667 36.778667 0 0 0-27.562667 10.24L424.704 404.906667z" fill="#BDB9B4" p-id="21871"></path><path d="M656.042667 455.509333L245.76 62.037333A54.613333 54.613333 0 0 0 213.589333 42.666667a42.154667 42.154667 0 0 0-39.68 25.6c-6.485333 15.36-1.877333 26.282667 12.288 46.592l326.4 396.117333L269.653333 809.386667a51.626667 51.626667 0 0 0-12.458666 50.346666 43.093333 43.093333 0 0 0 40.192 26.709334 38.4 38.4 0 0 0 29.013333-14.165334l329.386667-306.346666a74.410667 74.410667 0 0 0 0.256-110.421334z" fill="#B31B1B" p-id="21872"></path><path d="M841.386667 907.605333L511.573333 510.208l-87.637333-105.813333-53.76 48.384a79.786667 79.786667 0 0 0 0 114.773333l418.133333 402.944a35.84 35.84 0 0 0 28.757334 10.922667 40.192 40.192 0 0 0 36.864-25.856 48.64 48.64 0 0 0-12.714667-47.957334z" fill="#BDB9B4" p-id="21873"></path></svg>