<?xml version="1.0" standalone="no"?><!DOCTYPE svg PUBLIC "-//W3C//DTD SVG 1.1//EN" "http://www.w3.org/Graphics/SVG/1.1/DTD/svg11.dtd"><svg t="1778259350465" class="icon" viewBox="0 0 1024 1024" version="1.1" xmlns="http://www.w3.org/2000/svg" p-id="11231" xmlns:xlink="http://www.w3.org/1999/xlink" width="200" height="200"><path d="M509.0304 870.656c94.6432 0 185.4464-37.3504 252.3904-103.8336a353.28 353.28 0 0 0 104.5504-250.6752 353.28 353.28 0 0 0-104.5504-250.6752 358.1952 358.1952 0 0 0-252.416-103.8336 358.1696 358.1696 0 0 0-252.3904 103.8336 353.28 353.28 0 0 0-104.5504 250.6752 353.28 353.28 0 0 0 104.5504 250.6752 358.1696 358.1696 0 0 0 252.416 103.8336z" fill="#FFD21E" p-id="11232"></path><path d="M865.9712 516.1472a353.28 353.28 0 0 0-104.5504-250.6752 358.1952 358.1952 0 0 0-252.416-103.8336 358.1952 358.1952 0 0 0-252.3904 103.8336 353.28 353.28 0 0 0-104.5504 250.6752 353.28 353.28 0 0 0 104.5504 250.6752 358.1952 358.1952 0 0 0 252.416 103.8336c94.6432 0 185.4464-37.3504 252.3904-103.8336a353.28 353.28 0 0 0 104.5504-250.6752z m-754.9952 0c0-51.9168 10.3168-103.3216 30.3104-151.296a395.1616 395.1616 0 0 1 86.272-128.2304 398.208 398.208 0 0 1 129.152-85.6832 400.384 400.384 0 0 1 304.64 0c48.2816 19.8656 92.16 48.9728 129.1264 85.6832a395.1616 395.1616 0 0 1 86.272 128.256 392.96 392.96 0 0 1 30.2848 151.296c0 104.832-41.9328 205.3632-116.5568 279.5008a399.4112 399.4112 0 0 1-281.472 115.7888A399.4112 399.4112 0 0 1 227.584 795.6736a393.9584 393.9584 0 0 1-116.5824-279.5264z" fill="#FF9D0B" p-id="11233"></path><path d="M624.9984 419.7376c13.1328 4.5056 18.2784 31.232 31.5136 24.2944a51.2 51.2 0 0 0 21.1456-20.8896 50.688 50.688 0 0 0-5.4272-56.4224 51.3792 51.3792 0 0 0-54.5792-16.5888c-9.728 2.8928-18.3552 8.6016-24.832 16.384a50.8416 50.8416 0 0 0-5.7344 56.3968c6.272 11.7248 26.1888-7.3472 38.016-3.2768l-0.1024 0.1024z m-241.92 0c-13.1328 4.5056-18.3808 31.232-31.5136 24.2944a51.2 51.2 0 0 1-21.1456-20.8896 50.688 50.688 0 0 1 5.4272-56.4224 51.4048 51.4048 0 0 1 54.5792-16.5888c9.728 2.8928 18.3808 8.6016 24.832 16.384a50.8416 50.8416 0 0 1 5.7344 56.3968c-6.272 11.7248-26.2912-7.3472-38.016-3.2768l0.1024 0.1024z" fill="#3A3B45" p-id="11234"></path><path d="M506.4448 664.4736c100.9664 0 133.5296-89.344 133.5296-135.2704 0-23.8592-16.128-16.3072-41.984-3.6608-23.9616 11.7248-56.0896 27.9552-91.4432 27.9552-73.8304 0-133.5296-70.1952-133.5296-24.2944 0 45.9008 32.4608 135.2704 133.5296 135.2704h-0.1024z" fill="#FF323D" p-id="11235"></path><path d="M429.1072 641.1264a88.8832 88.8832 0 0 1 54.4512-45.824c4.096-1.2032 8.32 5.8368 12.7232 13.056 4.096 6.9632 8.448 14.0032 12.7488 14.0032 4.608 0 9.216-6.9376 13.6448-13.7728 4.6336-7.168 9.1392-14.08 13.568-12.7488a88.32 88.32 0 0 1 51.3536 42.5216C625.92 608.384 640 559.4112 640 529.2032c0-23.8592-16.128-16.3072-42.0352-3.6608l-1.4336 0.7168c-23.7312 11.7248-55.3472 27.2384-90.0608 27.2384-34.7392 0-66.2528-15.5136-90.112-27.2384-26.7008-13.1584-43.4432-21.4272-43.4432 2.944 0 31.1296 15.0016 82.2272 56.192 111.9232z" fill="#3A3B45" p-id="11236"></path><path d="M750.4128 467.712c8.8576 0 17.3312-3.5072 23.6032-9.728a33.024 33.024 0 0 0 0-46.8992 33.5104 33.5104 0 0 0-47.2064 0 33.024 33.024 0 0 0 0 46.8992c6.2464 6.2208 14.7456 9.728 23.6032 9.728z m-477.6448 0c8.8576 0 17.3568-3.5072 23.6032-9.728a33.024 33.024 0 0 0 0-46.8992 33.5104 33.5104 0 0 0-47.2064 0 33.024 33.024 0 0 0 0 46.8992c6.272 6.2208 14.7456 9.728 23.6032 9.728z m-68.7104 112.2048c-16.64 0-31.4368 6.7328-41.8048 19.072a60.6464 60.6464 0 0 0-13.6704 38.3488 73.472 73.472 0 0 0-19.9168-3.072c-15.9232 0-30.3104 6.0416-40.4736 16.9472a59.008 59.008 0 0 0-8.2176 71.424 54.016 54.016 0 0 0-18.3808 28.7744 59.3152 59.3152 0 0 0 8.192 48.3584 53.0176 53.0176 0 0 0-3.7888 51.2c10.496 23.68 36.6848 42.24 87.5264 62.2336 31.5392 12.4416 60.4928 20.4032 60.6976 20.5056a458.24 458.24 0 0 0 112.2816 16.3328c60.16 0 103.2192-18.3808 127.9744-54.4768 39.8592-58.0608 34.2016-111.2064-17.4592-162.432-28.4672-28.3648-47.4624-70.0672-51.3536-79.2576-8.0128-27.136-29.184-57.344-64.2048-57.344a58.88 58.88 0 0 0-47.2576 25.088c-10.2656-12.8256-20.3264-22.9376-29.3632-28.7488a76.3648 76.3648 0 0 0-40.7808-12.9536z m0 40.8064c5.2224 0 11.6992 2.2528 18.688 6.6304 21.9904 13.8752 64.2048 86.016 79.7184 114.048 5.12 9.3952 14.08 13.3632 21.9648 13.3632 15.9232 0 28.2624-15.616 1.536-35.5072-40.2432-29.8752-26.1888-78.7456-6.9632-81.7152 0.8192-0.2048 1.7408-0.2048 2.4576-0.2048 17.4592 0 25.1648 29.9008 25.1648 29.9008s22.6048 56.32 61.44 94.8736c38.7072 38.4768 40.7552 69.376 12.5184 110.4896-19.3024 28.0576-56.192 36.5312-94.08 36.5312-39.168 0-79.4112-9.216-101.888-14.8992-1.152-0.3072-138.1632-38.784-120.832-71.424 2.8928-5.504 7.7312-7.7568 13.7728-7.7568 24.448 0 68.8384 36.1216 88.0384 36.1216 4.1984 0 7.168-1.7408 8.5248-6.1184 8.1152-29.0816-123.8784-41.3184-112.7936-83.3536 2.048-7.424 7.296-10.3936 14.7968-10.3936 32.256 0 104.7808 56.3968 119.9872 56.3968 1.1264 0 2.048-0.2816 2.4576-1.024 7.6032-12.2368 3.3792-20.7872-50.3296-53.0432-53.504-32.2304-91.2128-51.6096-69.8624-74.752 2.4832-2.6624 5.9648-3.8912 10.2912-3.8912 32.5632 0 109.4912 69.5808 109.4912 69.5808s20.736 21.4272 33.3824 21.4272c2.8672 0 5.3504-1.024 6.9888-3.8912 8.832-14.8992-82.7904-83.8656-87.936-112.3072-3.4816-19.4048 2.4576-29.0816 13.4656-29.0816z" fill="#FF9D0B" p-id="11237"></path><path d="M420.5824 872.6016c28.2368-41.216 26.1888-72.1152-12.544-110.592-38.8096-38.4512-61.4144-94.8736-61.4144-94.8736s-8.4224-32.64-27.648-29.5936c-19.2 3.072-33.28 51.84 7.0144 81.7152 40.1408 29.9008-8.0128 50.2016-23.552 22.144-15.3856-28.0576-57.7024-100.1728-79.6928-114.048-21.888-13.7728-37.2736-6.144-32.1536 22.4512 5.12 28.4416 96.8704 97.408 87.936 112.2048-8.96 15.0016-40.3712-17.4336-40.3712-17.4336s-98.304-88.8576-119.7568-65.7152c-21.376 23.168 16.3328 42.5472 69.8368 74.7776 53.7088 32.256 57.9328 40.8064 50.3296 53.0688-7.68 12.2368-126.1312-87.04-137.216-44.9024-11.1104 41.9328 120.8832 54.0672 112.768 83.1488-8.192 29.0816-93.056-54.8864-110.336-22.2464-17.4336 32.768 119.68 71.2192 120.832 71.5264 44.16 11.4176 156.6208 35.584 195.968-21.632z" fill="#FFD21E" p-id="11238"></path><path d="M819.1232 579.9168c16.64 0 31.5392 6.7328 41.8048 19.072 8.8576 10.8544 13.6704 24.3968 13.6704 38.3488 6.5024-1.92 13.2352-2.9696 20.0192-3.072 15.9232 0 30.3104 6.0416 40.4736 16.9472a58.9824 58.9824 0 0 1 8.2176 71.424c9.0624 7.3728 15.4624 17.4592 18.2784 28.7744a59.2896 59.2896 0 0 1-8.192 48.3584 52.992 52.992 0 0 1 3.7888 51.2c-10.496 23.68-36.6848 42.24-87.424 62.208-31.6416 12.4672-60.5952 20.4288-60.8 20.5312-36.608 10.0608-74.3168 15.5392-112.2816 16.3328-60.1856 0-103.2192-18.3808-128-54.4768-39.8336-58.0608-34.176-111.2064 17.4848-162.432 28.544-28.3648 47.5648-70.0672 51.456-79.2576 8.0128-27.136 29.0816-57.344 64.1024-57.344a58.88 58.88 0 0 1 47.232 25.088c10.2912-12.8256 20.352-22.9376 29.4912-28.7488a76.3904 76.3904 0 0 1 40.6784-12.9536z m0 40.8064c-5.248 0-11.5968 2.2272-18.688 6.6304-21.888 13.8752-64.2048 86.016-79.7184 114.048a24.832 24.832 0 0 1-21.9648 13.3632c-15.8208 0-28.2624-15.616-1.4592-35.5072 40.192-29.8752 26.112-78.7456 6.912-81.7152a15.872 15.872 0 0 0-2.4832-0.2048c-17.4592 0-25.1648 29.9008-25.1648 29.9008s-22.6048 56.32-61.3376 94.8736c-38.8096 38.4512-40.8576 69.376-12.544 110.4896 19.2256 28.0576 56.2176 36.5312 94.0032 36.5312 39.2448 0 79.4112-9.216 102.016-14.8992 1.024-0.3072 138.1376-38.784 120.7808-71.424-2.9696-5.504-7.68-7.7568-13.7728-7.7568-24.4224 0-68.9152 36.1216-88.0128 36.1216-4.3264 0-7.296-1.7408-8.5248-6.144-8.2176-29.056 123.776-41.2928 112.6656-83.328-1.9456-7.424-7.168-10.3936-14.7712-10.3936-32.256 0-104.7808 56.3968-119.9872 56.3968-1.024 0-1.9456-0.3072-2.3552-1.024-7.6032-12.2368-3.5072-20.7872 50.1248-53.0432 53.7088-32.2304 91.392-51.6096 69.8368-74.752-2.3552-2.6624-5.8368-3.8912-10.0608-3.8912-32.6656 0-109.5936 69.5808-109.5936 69.5808s-20.736 21.4272-33.28 21.4272a7.6288 7.6288 0 0 1-6.9888-3.8912c-8.9344-14.8992 82.688-83.8656 87.808-112.3072 3.5072-19.4048-2.4576-29.0816-13.44-29.0816z" fill="#FF9D0B" p-id="11239"></path><path d="M602.7008 872.6016c-28.2368-41.216-26.2912-72.1152 12.544-110.592 38.7072-38.4512 61.312-94.8736 61.312-94.8736s8.4224-32.64 27.7248-29.5936c19.1232 3.072 33.1776 51.84-6.9888 81.7152-40.2432 29.9008 8.0128 50.2016 23.424 22.144 15.5136-28.0576 57.856-100.1728 79.7184-114.048 21.8624-13.7728 37.376-6.144 32.1536 22.4512-5.12 28.4416-96.768 97.408-87.808 112.2048 8.8064 15.0016 40.2432-17.4336 40.2432-17.4336s98.4064-88.8576 119.7568-65.7152c21.376 23.168-16.2304 42.5472-69.8368 74.7776-53.7344 32.256-57.8304 40.8064-50.3296 53.0688 7.68 12.2368 126.1312-87.04 137.216-44.9024 11.1104 41.9328-120.7808 54.0672-112.6656 83.1488 8.192 29.0816 92.9536-54.8864 110.336-22.2464 17.3312 32.768-119.68 71.2192-120.832 71.5264-44.2624 11.4176-156.7232 35.584-195.968-21.632z" fill="#FFD21E" p-id="11240"></path></svg>